####
#
#	OBJ File Generated by LightWave3D
#	LightWave3D OBJ Export v2.3
#
####
o box2.obj
mtllib box2.mtl
g default
v -0.75 -0.5 1.25
v -0.75 -0.5 -1.25
v -0.75 0.5 1.25
v -0.75 0.5 -1.25
v 0.75 -0.5 1.25
v 0.75 -0.5 -1.25
v 0.75 0.5 1.25
v 0.75 0.5 -1.25
vn -0.57735 -0.57735 0.57735
vn -0.57735 -0.57735 -0.57735
vn -0.57735 0.57735 0.57735
vn -0.57735 0.57735 -0.57735
vn 0.57735 -0.57735 0.57735
vn 0.57735 -0.57735 -0.57735
vn 0.57735 0.57735 0.57735
vn 0.57735 0.57735 -0.57735
usemtl Red
s off
f 5//5 7//7 3//3 1//1
f 3//3 4//4 2//2 1//1
f 7//7 8//8 4//4 3//3
f 6//6 8//8 7//7 5//5
f 2//2 6//6 5//5 1//1
f 4//4 8//8 6//6 2//2
