####
#
#	OBJ File Generated by LightWave3D
#	LightWave3D OBJ Export v2.3
#
####
o frame.obj
mtllib frame.mtl
g default
v -0.125 -0.125 0.125
v -0.125 -0.125 -0.125
v -0.125 0 -0.125
v -0.125 0 -2
v -0.125 0.125 0.125
v -0.125 0.125 -0
v -0.125 0.125 -0.125
v -0.125 2 -1.22465e-016
v -0.120741 -0.0323524 -0.125
v -0.120741 -0.0323524 -2
v -0.120741 0.0323524 -0.125
v -0.120741 0.0323524 -2
v -0.120741 0.125 0.0323524
v -0.120741 0.125 -0.0323524
v -0.120741 2 0.0323524
v -0.120741 2 -0.0323524
v -0.108253 -0.0625 -0.125
v -0.108253 -0.0625 -2
v -0.108253 0.0625 -0.125
v -0.108253 0.0625 -2
v -0.108253 0.125 0.0625
v -0.108253 0.125 -0.0625
v -0.108253 2 0.0625
v -0.108253 2 -0.0625
v -0.0883883 -0.0883883 -0.125
v -0.0883883 -0.0883883 -2
v -0.0883883 0.0883883 -0.125
v -0.0883883 0.0883883 -2
v -0.0883883 0.125 0.0883883
v -0.0883883 0.125 -0.0883883
v -0.0883883 2 0.0883883
v -0.0883883 2 -0.0883883
v -0.0625 -0.108253 -0.125
v -0.0625 -0.108253 -2
v -0.0625 0.108253 -0.125
v -0.0625 0.108253 -2
v -0.0625 0.125 0.108253
v -0.0625 0.125 -0.108253
v -0.0625 2 0.108253
v -0.0625 2 -0.108253
v -0.0323524 -0.120741 -0.125
v -0.0323524 -0.120741 -2
v -0.0323524 0.120741 -0.125
v -0.0323524 0.120741 -2
v -0.0323524 0.125 0.120741
v -0.0323524 0.125 -0.120741
v -0.0323524 2 0.120741
v -0.0323524 2 -0.120741
v 0 -0.125 -0.125
v 0 -0.125 -2
v 0 0 -2.25
v 0 0.125 0.125
v 0 0.125 -0.125
v 0 0.125 -2
v 0 2 0.125
v 0 2 -0.125
v 0 2.25 -9.25186e-018
v 0.0323524 -0.120741 -0.125
v 0.0323524 -0.120741 -2
v 0.0323524 0.120741 -0.125
v 0.0323524 0.120741 -2
v 0.0323524 0.125 0.120741
v 0.0323524 0.125 -0.120741
v 0.0323524 2 0.120741
v 0.0323524 2 -0.120741
v 0.0625 -0.108253 -0.125
v 0.0625 -0.108253 -2
v 0.0625 0.108253 -0.125
v 0.0625 0.108253 -2
v 0.0625 0.125 0.108253
v 0.0625 0.125 -0.108253
v 0.0625 2 0.108253
v 0.0625 2 -0.108253
v 0.0883883 -0.0883883 -0.125
v 0.0883883 -0.0883883 -2
v 0.0883883 0.0883883 -0.125
v 0.0883883 0.0883883 -2
v 0.0883883 0.125 0.0883883
v 0.0883883 0.125 -0.0883883
v 0.0883883 2 0.0883883
v 0.0883883 2 -0.0883883
v 0.108253 -0.0625 -0.125
v 0.108253 -0.0625 -2
v 0.108253 0.0625 -0.125
v 0.108253 0.0625 -2
v 0.108253 0.125 0.0625
v 0.108253 0.125 -0.0625
v 0.108253 2 0.0625
v 0.108253 2 -0.0625
v 0.120741 -0.0323524 -0.125
v 0.120741 -0.0323524 -2
v 0.120741 0.0323524 -0.125
v 0.120741 0.0323524 -2
v 0.120741 0.125 0.0323524
v 0.120741 0.125 -0.0323524
v 0.120741 2 0.0323524
v 0.120741 2 -0.0323524
v 0.125 -0.125 0.125
v 0.125 -0.125 -0
v 0.125 -0.125 -0.125
v 0.125 -0.120741 0.0323524
v 0.125 -0.120741 -0.0323524
v 0.125 -0.108253 0.0625
v 0.125 -0.108253 -0.0625
v 0.125 -0.0883883 0.0883883
v 0.125 -0.0883883 -0.0883883
v 0.125 -0.0625 0.108253
v 0.125 -0.0625 -0.108253
v 0.125 -0.0323524 0.120741
v 0.125 -0.0323524 -0.120741
v 0.125 0 0.125
v 0.125 0 -0.125
v 0.125 0 -2
v 0.125 0.0323524 0.120741
v 0.125 0.0323524 -0.120741
v 0.125 0.0625 0.108253
v 0.125 0.0625 -0.108253
v 0.125 0.0883883 0.0883883
v 0.125 0.0883883 -0.0883883
v 0.125 0.108253 0.0625
v 0.125 0.108253 -0.0625
v 0.125 0.120741 0.0323524
v 0.125 0.120741 -0.0323524
v 0.125 0.125 0.125
v 0.125 0.125 -0
v 0.125 0.125 -0.125
v 0.125 2 -1.22465e-016
v 2.125 -0.125 -1.22465e-016
v 2.125 -0.120741 0.0323524
v 2.125 -0.120741 -0.0323524
v 2.125 -0.108253 0.0625
v 2.125 -0.108253 -0.0625
v 2.125 -0.0883883 0.0883883
v 2.125 -0.0883883 -0.0883883
v 2.125 -0.0625 0.108253
v 2.125 -0.0625 -0.108253
v 2.125 -0.0323524 0.120741
v 2.125 -0.0323524 -0.120741
v 2.125 0 0.125
v 2.125 0 -0.125
v 2.125 0.0323524 0.120741
v 2.125 0.0323524 -0.120741
v 2.125 0.0625 0.108253
v 2.125 0.0625 -0.108253
v 2.125 0.0883883 0.0883883
v 2.125 0.0883883 -0.0883883
v 2.125 0.108253 0.0625
v 2.125 0.108253 -0.0625
v 2.125 0.120741 0.0323524
v 2.125 0.120741 -0.0323524
v 2.125 0.125 -1.22465e-016
v 2.375 0 -9.25186e-018
vn -0.982608 0.0269961 -0.183721
vn -0.982608 0.183721 0.0269961
vn -0.956113 -0.228241 -0.183721
vn -0.956113 0.183721 -0.228241
vn -0.942139 0.183721 0.280394
vn -0.942139 0.280394 -0.183721
vn -0.864461 -0.467925 -0.183721
vn -0.864461 0.183721 -0.467925
vn -0.837465 0.183721 0.514683
vn -0.837465 0.514683 -0.183721
vn -0.829291 -0.0363927 -0.557631
vn -0.829291 0.557631 -0.0363927
vn -0.810452 0.179484 -0.557631
vn -0.810452 0.557631 0.179484
vn -0.791614 -0.249789 -0.557631
vn -0.791614 0.557631 -0.249789
vn -0.736383 0.557631 0.383128
vn -0.736383 0.383128 -0.557631
vn -0.713898 -0.675719 -0.183721
vn -0.713898 0.183721 -0.675719
vn -0.69999 -0.446162 -0.557631
vn -0.69999 0.557631 -0.446162
vn -0.675719 0.183721 0.713898
vn -0.675719 0.713898 -0.183721
vn -0.612131 0.557631 0.560664
vn -0.612131 0.560664 -0.557631
vn -0.560664 -0.612131 -0.557631
vn -0.560664 0.557631 -0.612131
vn -0.514683 -0.837465 -0.183721
vn -0.514683 0.183721 -0.837465
vn -0.467925 0.183721 0.864461
vn -0.467925 0.864461 -0.183721
vn -0.446162 0.557631 0.69999
vn -0.446162 0.69999 -0.557631
vn -0.408248 -0.408248 0.816497
vn -0.383128 -0.736383 -0.557631
vn -0.383128 0.557631 -0.736383
vn -0.312348 0.937043 0.156174
vn -0.301511 -0.301511 -0.904534
vn -0.280394 -0.942139 -0.183721
vn -0.280394 0.183721 -0.942139
vn -0.249789 0.557631 0.791614
vn -0.249789 0.791614 -0.557631
vn -0.228241 0.183721 0.956113
vn -0.228241 0.956113 -0.183721
vn -0.179484 -0.810452 -0.557631
vn -0.179484 0.557631 -0.810452
vn -0.117041 0.702247 -0.702247
vn -1.28223e-009 -0.988246 -0.152873
vn -1.28223e-009 0.152873 -0.988246
vn 0 -0.704063 -0.710138
vn 0 0.229949 0.973203
vn 0 0.450293 0.892881
vn 0 0.831683 -0.555251
vn 0 0.973203 -0.229949
vn 2.79585e-008 5.5917e-009 -1
vn 2.79585e-008 1 5.5917e-009
vn 0.152873 -0.954572 -0.255777
vn 0.179484 -0.810452 -0.557631
vn 0.179484 0.557631 -0.810452
vn 0.183721 -0.228241 0.956113
vn 0.183721 0.280394 -0.942139
vn 0.183721 0.514683 0.837465
vn 0.183721 0.514683 -0.837465
vn 0.183721 0.713898 -0.675719
vn 0.183721 0.864461 0.467925
vn 0.183721 0.864461 -0.467925
vn 0.183721 0.956113 0.228241
vn 0.183721 -0.982608 0.0269961
vn 0.183721 -0.942139 0.280394
vn 0.183721 -0.837465 0.514683
vn 0.183721 -0.837465 -0.514683
vn 0.183721 -0.675719 -0.713898
vn 0.183721 -0.467925 0.864461
vn 0.183721 -0.467925 -0.864461
vn 0.183721 -0.228241 -0.956113
vn 0.183721 0.0269961 0.982608
vn 0.183721 0.0269961 -0.982608
vn 0.183721 0.280394 0.942139
vn 0.183721 0.713898 0.675719
vn 0.183721 0.982608 -0.0269961
vn 0.183721 -0.675719 0.713898
vn 0.228241 0.183721 0.956113
vn 0.228241 0.956113 -0.183721
vn 0.229949 0.940042 -0.251883
vn 0.249789 0.557631 0.791614
vn 0.249789 0.791614 -0.557631
vn 0.280394 -0.942139 -0.183721
vn 0.280394 0.183721 -0.942139
vn 0.383128 -0.736383 -0.557631
vn 0.383128 0.557631 -0.736383
vn 0.446162 0.557631 0.69999
vn 0.446162 0.69999 -0.557631
vn 0.450293 0.862457 -0.231095
vn 0.467925 0.183721 0.864461
vn 0.467925 0.864461 -0.183721
vn 0.514683 -0.837465 -0.183721
vn 0.514683 0.183721 -0.837465
vn 0.557631 -0.446162 0.69999
vn 0.557631 -0.446162 -0.69999
vn 0.557631 0.383128 0.736383
vn 0.557631 0.383128 -0.736383
vn 0.557631 0.560664 0.612131
vn 0.557631 0.560664 -0.612131
vn 0.557631 0.69999 0.446162
vn 0.557631 0.69999 -0.446162
vn 0.557631 -0.829291 -0.0363927
vn 0.557631 -0.810452 0.179484
vn 0.557631 -0.736383 0.383128
vn 0.557631 -0.736383 -0.383128
vn 0.557631 -0.612131 0.560664
vn 0.557631 -0.612131 -0.560664
vn 0.557631 -0.249789 0.791614
vn 0.557631 -0.249789 -0.791614
vn 0.557631 -0.0363927 0.829291
vn 0.557631 0.179484 0.810452
vn 0.557631 0.179484 -0.810452
vn 0.557631 0.791614 0.249789
vn 0.560664 -0.612131 -0.557631
vn 0.560664 0.557631 -0.612131
vn 0.57735 0.57735 -0.57735
vn 0.612131 0.557631 0.560664
vn 0.612131 0.560664 -0.557631
vn 0.675719 0.183721 0.713898
vn 0.675719 0.713898 -0.183721
vn 0.688247 0.688247 0.229416
vn 0.69999 -0.446162 -0.557631
vn 0.69999 0.557631 -0.446162
vn 0.702247 -0.117041 -0.702247
vn 0.70662 -0.0370834 -0.70662
vn 0.707107 0.707107 -0
vn 0.710138 -0.680072 -0.182225
vn 0.713898 -0.675719 -0.183721
vn 0.713898 0.183721 -0.675719
vn 0.736383 0.383128 -0.557631
vn 0.736383 0.557631 0.383128
vn 0.791614 -0.249789 -0.557631
vn 0.791614 0.557631 -0.249789
vn 0.810452 0.179484 -0.557631
vn 0.810452 0.557631 0.179484
vn 0.837465 0.183721 0.514683
vn 0.837465 0.514683 -0.183721
vn 0.864461 -0.467925 -0.183721
vn 0.864461 0.183721 -0.467925
vn 0.937043 -0.312348 0.156174
vn 0.942139 0.183721 0.280394
vn 0.942139 0.280394 -0.183721
vn 0.956113 -0.228241 -0.183721
vn 0.956113 0.183721 -0.228241
vn 0.982608 0.0269961 -0.183721
vn 0.982608 0.183721 0.0269961
vn 1 5.5917e-009 2.79585e-008
usemtl Blue
s off
p 51//56
usemtl Green
s off
p 57//57
usemtl Red
s off
p 152//152
usemtl Center
s off
f 5//38 2//39 1//35
f 5//38 7//48 2//39
f 2//39 98//145 1//35
f 2//39 100//129 98//145
f 124//126 62//86 52//53
f 70//92 62//86 124//126
f 78//122 70//92 124//126
f 86//136 78//122 124//126
f 94//140 86//136 124//126
f 125//131 94//140 124//126
f 126//121 115//117 112//130
f 126//121 117//102 115//117
f 126//121 119//104 117//102
f 126//121 121//106 119//104
f 126//121 123//94 121//106
f 126//121 125//131 123//94
f 125//131 124//126 122//118
f 122//118 124//126 120//105
f 120//105 124//126 118//103
f 118//103 124//126 116//101
f 116//101 124//126 114//116
f 114//116 124//126 111//115
f 109//113 111//115 98//145
f 107//99 109//113 98//145
f 105//111 107//99 98//145
f 103//109 105//111 98//145
f 101//108 103//109 98//145
f 99//107 101//108 98//145
f 100//129 102//132 99//107
f 104//110 102//132 100//129
f 106//112 104//110 100//129
f 108//100 106//112 100//129
f 110//114 108//100 100//129
f 112//130 110//114 100//129
f 53//54 126//121 60//87
f 60//87 126//121 68//93
f 68//93 126//121 76//123
f 76//123 126//121 84//135
f 84//135 126//121 92//139
f 92//139 126//121 112//130
f 90//137 112//130 100//129
f 82//127 90//137 100//129
f 74//119 82//127 100//129
f 66//90 74//119 100//129
f 58//59 66//90 100//129
f 58//59 100//129 49//51
f 2//39 41//46 49//51
f 33//36 41//46 2//39
f 25//27 33//36 2//39
f 17//21 25//27 2//39
f 9//15 17//21 2//39
f 3//11 9//15 2//39
f 7//48 11//13 3//11
f 7//48 19//18 11//13
f 7//48 27//26 19//18
f 7//48 35//34 27//26
f 7//48 43//43 35//34
f 7//48 53//54 43//43
usemtl Blue
s off
f 59//88 58//59 50//49
f 50//49 58//59 49//51
f 41//46 42//40 50//49
f 41//46 50//49 49//51
f 54//55 53//54 61//84
f 61//84 53//54 60//87
f 61//84 60//87 69//96
f 69//96 60//87 68//93
f 69//96 68//93 77//125
f 77//125 68//93 76//123
f 77//125 76//123 85//142
f 85//142 76//123 84//135
f 85//142 84//135 93//147
f 93//147 84//135 92//139
f 93//147 92//139 113//150
f 113//150 92//139 112//130
f 113//150 112//130 91//148
f 91//148 112//130 90//137
f 91//148 90//137 83//143
f 83//143 90//137 82//127
f 83//143 82//127 75//133
f 75//133 82//127 74//119
f 75//133 74//119 67//97
f 67//97 74//119 66//90
f 67//97 66//90 59//88
f 59//88 66//90 58//59
f 33//36 34//29 42//40
f 33//36 42//40 41//46
f 25//27 26//19 34//29
f 25//27 34//29 33//36
f 17//21 18//7 26//19
f 17//21 26//19 25//27
f 9//15 10//3 18//7
f 9//15 18//7 17//21
f 3//11 4//1 10//3
f 3//11 10//3 9//15
f 11//13 12//6 4//1
f 11//13 4//1 3//11
f 19//18 20//10 12//6
f 19//18 12//6 11//13
f 27//26 28//24 20//10
f 27//26 20//10 19//18
f 35//34 36//32 28//24
f 35//34 28//24 27//26
f 43//43 44//45 36//32
f 43//43 36//32 35//34
f 53//54 54//55 44//45
f 53//54 44//45 43//43
usemtl Green
s off
f 64//83 55//52 52//53
f 62//86 64//83 52//53
f 72//95 64//83 62//86
f 70//92 72//95 62//86
f 80//124 72//95 70//92
f 78//122 80//124 70//92
f 88//141 80//124 78//122
f 86//136 88//141 78//122
f 96//146 88//141 86//136
f 94//140 96//146 86//136
f 125//131 127//151 94//140
f 127//151 96//146 94//140
f 95//138 97//149 125//131
f 97//149 127//151 125//131
f 89//144 97//149 95//138
f 87//128 89//144 95//138
f 81//134 89//144 87//128
f 79//120 81//134 87//128
f 73//98 81//134 79//120
f 71//91 73//98 79//120
f 65//89 73//98 71//91
f 63//60 65//89 71//91
f 56//50 65//89 63//60
f 53//54 56//50 63//60
f 48//41 56//50 46//47
f 56//50 53//54 46//47
f 40//30 48//41 38//37
f 48//41 46//47 38//37
f 32//20 40//30 30//28
f 40//30 38//37 30//28
f 24//8 32//20 22//22
f 32//20 30//28 22//22
f 16//4 24//8 14//16
f 24//8 22//22 14//16
f 16//4 14//16 6//12
f 8//2 16//4 6//12
f 15//5 8//2 13//14
f 8//2 6//12 13//14
f 23//9 15//5 21//17
f 15//5 13//14 21//17
f 31//23 23//9 29//25
f 23//9 21//17 29//25
f 39//31 31//23 37//33
f 31//23 29//25 37//33
f 47//44 39//31 45//42
f 39//31 37//33 45//42
f 55//52 47//44 52//53
f 47//44 45//42 52//53
usemtl Red
s off
f 151//81 125//131 149//68
f 149//68 125//131 122//118
f 149//68 122//118 147//66
f 147//66 122//118 120//105
f 147//66 120//105 145//80
f 145//80 120//105 118//103
f 145//80 118//103 143//63
f 143//63 118//103 116//101
f 143//63 116//101 141//79
f 141//79 116//101 114//116
f 141//79 114//116 139//77
f 139//77 114//116 111//115
f 139//77 111//115 137//61
f 137//61 111//115 109//113
f 137//61 109//113 135//74
f 135//74 109//113 107//99
f 135//74 107//99 133//82
f 133//82 107//99 105//111
f 133//82 105//111 131//71
f 131//71 105//111 103//109
f 131//71 103//109 129//70
f 129//70 103//109 101//108
f 129//70 101//108 128//69
f 128//69 101//108 99//107
f 102//132 130//58 99//107
f 130//58 128//69 99//107
f 104//110 132//72 130//58
f 104//110 130//58 102//132
f 106//112 134//73 132//72
f 106//112 132//72 104//110
f 108//100 136//75 134//73
f 108//100 134//73 106//112
f 110//114 138//76 136//75
f 110//114 136//75 108//100
f 112//130 140//78 138//76
f 112//130 138//76 110//114
f 115//117 142//62 140//78
f 115//117 140//78 112//130
f 117//102 144//64 142//62
f 117//102 142//62 115//117
f 119//104 146//65 144//64
f 119//104 144//64 117//102
f 121//106 148//67 146//65
f 121//106 146//65 119//104
f 123//94 150//85 148//67
f 123//94 148//67 121//106
f 125//131 151//81 123//94
f 151//81 150//85 123//94
usemtl Center
s off
f 124//126 5//38 1//35
f 124//126 1//35 98//145
usemtl Red
s off
f 151//81 149//68 152//152
f 150//85 151//81 152//152
f 148//67 150//85 152//152
f 146//65 148//67 152//152
f 144//64 146//65 152//152
f 142//62 144//64 152//152
f 140//78 142//62 152//152
f 140//78 152//152 138//76
f 138//76 152//152 136//75
f 136//75 152//152 134//73
f 134//73 152//152 132//72
f 132//72 152//152 130//58
f 130//58 152//152 128//69
f 152//152 129//70 128//69
f 152//152 131//71 129//70
f 152//152 133//82 131//71
f 152//152 135//74 133//82
f 152//152 137//61 135//74
f 152//152 139//77 137//61
f 152//152 141//79 139//77
f 143//63 141//79 152//152
f 145//80 143//63 152//152
f 147//66 145//80 152//152
f 149//68 147//66 152//152
usemtl Blue
s off
f 54//55 61//84 51//56
f 44//45 54//55 51//56
f 36//32 44//45 51//56
f 28//24 36//32 51//56
f 20//10 28//24 51//56
f 12//6 20//10 51//56
f 12//6 51//56 4//1
f 4//1 51//56 10//3
f 10//3 51//56 18//7
f 18//7 51//56 26//19
f 26//19 51//56 34//29
f 34//29 51//56 42//40
f 42//40 51//56 50//49
f 51//56 59//88 50//49
f 51//56 67//97 59//88
f 51//56 75//133 67//97
f 51//56 83//143 75//133
f 51//56 91//148 83//143
f 51//56 113//150 91//148
f 51//56 93//147 113//150
f 85//142 93//147 51//56
f 77//125 85//142 51//56
f 69//96 77//125 51//56
f 61//84 69//96 51//56
usemtl Green
s off
f 64//83 57//57 55//52
f 57//57 47//44 55//52
f 57//57 39//31 47//44
f 57//57 31//23 39//31
f 57//57 23//9 31//23
f 57//57 15//5 23//9
f 57//57 8//2 15//5
f 57//57 16//4 8//2
f 57//57 24//8 16//4
f 57//57 32//20 24//8
f 57//57 40//30 32//20
f 57//57 48//41 40//30
f 57//57 56//50 48//41
f 56//50 57//57 65//89
f 65//89 57//57 73//98
f 73//98 57//57 81//134
f 81//134 57//57 89//144
f 89//144 57//57 97//149
f 97//149 57//57 127//151
f 127//151 57//57 96//146
f 96//146 57//57 88//141
f 88//141 57//57 80//124
f 80//124 57//57 72//95
f 72//95 57//57 64//83
usemtl Center
s off
f 53//54 7//48 46//47
f 46//47 7//48 38//37
f 38//37 7//48 30//28
f 30//28 7//48 22//22
f 22//22 7//48 14//16
f 14//16 7//48 6//12
usemtl Default
s off
f 13//14 6//12 5//38
f 21//17 13//14 5//38
f 29//25 21//17 5//38
f 37//33 29//25 5//38
f 45//42 37//33 5//38
f 45//42 5//38 52//53
usemtl Center
s off
f 126//121 95//138 125//131
f 126//121 87//128 95//138
f 126//121 79//120 87//128
f 126//121 71//91 79//120
f 126//121 63//60 71//91
f 126//121 53//54 63//60
