####
#
#	OBJ File Generated by LightWave3D
#	LightWave3D OBJ Export v2.3
#
####
o groundBox.obj
mtllib groundBox.mtl
g default
v -60 -10 60
v -60 -10 50
v -60 -10 40
v -60 -10 30
v -60 -10 20
v -60 -10 10
v -60 -10 -0
v -60 -10 -10
v -60 -10 -20
v -60 -10 -30
v -60 -10 -40
v -60 -10 -50
v -60 -10 -60
v -60 10 60
v -60 10 50
v -60 10 40
v -60 10 30
v -60 10 20
v -60 10 10
v -60 10 -0
v -60 10 -10
v -60 10 -20
v -60 10 -30
v -60 10 -40
v -60 10 -50
v -60 10 -60
v -50 -10 60
v -50 -10 -60
v -50 0 50
v -50 0 40
v -50 0 30
v -50 0 20
v -50 0 10
v -50 0 -0
v -50 0 -10
v -50 0 -20
v -50 0 -30
v -50 0 -40
v -50 0 -50
v -50 10 60
v -50 10 50
v -50 10 40
v -50 10 30
v -50 10 20
v -50 10 10
v -50 10 -0
v -50 10 -10
v -50 10 -20
v -50 10 -30
v -50 10 -40
v -50 10 -50
v -50 10 -60
v -40 -10 60
v -40 -10 -60
v -40 0 50
v -40 0 40
v -40 0 30
v -40 0 20
v -40 0 10
v -40 0 -0
v -40 0 -10
v -40 0 -20
v -40 0 -30
v -40 0 -40
v -40 0 -50
v -40 10 60
v -40 10 50
v -40 10 -50
v -40 10 -60
v -30 -10 60
v -30 -10 -60
v -30 0 50
v -30 0 40
v -30 0 30
v -30 0 20
v -30 0 10
v -30 0 -0
v -30 0 -10
v -30 0 -20
v -30 0 -30
v -30 0 -40
v -30 0 -50
v -30 10 60
v -30 10 50
v -30 10 -50
v -30 10 -60
v -20 -10 60
v -20 -10 -60
v -20 0 50
v -20 0 40
v -20 0 30
v -20 0 20
v -20 0 10
v -20 0 -0
v -20 0 -10
v -20 0 -20
v -20 0 -30
v -20 0 -40
v -20 0 -50
v -20 10 60
v -20 10 50
v -20 10 -50
v -20 10 -60
v -10 -10 60
v -10 -10 -60
v -10 0 50
v -10 0 40
v -10 0 30
v -10 0 20
v -10 0 10
v -10 0 -0
v -10 0 -10
v -10 0 -20
v -10 0 -30
v -10 0 -40
v -10 0 -50
v -10 10 60
v -10 10 50
v -10 10 -50
v -10 10 -60
v 0 -10 60
v 0 -10 -60
v 0 0 50
v 0 0 40
v 0 0 30
v 0 0 20
v 0 0 10
v 0 0 -0
v 0 0 -10
v 0 0 -20
v 0 0 -30
v 0 0 -40
v 0 0 -50
v 0 10 60
v 0 10 50
v 0 10 -50
v 0 10 -60
v 10 -10 60
v 10 -10 -60
v 10 0 50
v 10 0 40
v 10 0 30
v 10 0 20
v 10 0 10
v 10 0 -0
v 10 0 -10
v 10 0 -20
v 10 0 -30
v 10 0 -40
v 10 0 -50
v 10 10 60
v 10 10 50
v 10 10 -50
v 10 10 -60
v 20 -10 60
v 20 -10 -60
v 20 0 50
v 20 0 40
v 20 0 30
v 20 0 20
v 20 0 10
v 20 0 -0
v 20 0 -10
v 20 0 -20
v 20 0 -30
v 20 0 -40
v 20 0 -50
v 20 10 60
v 20 10 50
v 20 10 -50
v 20 10 -60
v 30 -10 60
v 30 -10 -60
v 30 0 50
v 30 0 40
v 30 0 30
v 30 0 20
v 30 0 10
v 30 0 -0
v 30 0 -10
v 30 0 -20
v 30 0 -30
v 30 0 -40
v 30 0 -50
v 30 10 60
v 30 10 50
v 30 10 -50
v 30 10 -60
v 40 -10 60
v 40 -10 -60
v 40 0 50
v 40 0 40
v 40 0 30
v 40 0 20
v 40 0 10
v 40 0 -0
v 40 0 -10
v 40 0 -20
v 40 0 -30
v 40 0 -40
v 40 0 -50
v 40 10 60
v 40 10 50
v 40 10 -50
v 40 10 -60
v 50 -10 60
v 50 -10 -60
v 50 0 50
v 50 0 40
v 50 0 30
v 50 0 20
v 50 0 10
v 50 0 -0
v 50 0 -10
v 50 0 -20
v 50 0 -30
v 50 0 -40
v 50 0 -50
v 50 10 60
v 50 10 50
v 50 10 40
v 50 10 30
v 50 10 20
v 50 10 10
v 50 10 -0
v 50 10 -10
v 50 10 -20
v 50 10 -30
v 50 10 -40
v 50 10 -50
v 50 10 -60
v 60 -10 60
v 60 -10 50
v 60 -10 40
v 60 -10 30
v 60 -10 20
v 60 -10 10
v 60 -10 -0
v 60 -10 -10
v 60 -10 -20
v 60 -10 -30
v 60 -10 -40
v 60 -10 -50
v 60 -10 -60
v 60 10 60
v 60 10 50
v 60 10 40
v 60 10 30
v 60 10 20
v 60 10 10
v 60 10 -0
v 60 10 -10
v 60 10 -20
v 60 10 -30
v 60 10 -40
v 60 10 -50
v 60 10 -60
vn -1 0 -0
vn -0.894427 0 -0.447214
vn -0.816497 0.408248 0.408248
vn -0.707107 0.707107 -0
vn -0.666667 0.666667 0.333333
vn -0.447214 0 0.894427
vn -0.436436 0.872872 -0.218218
vn -0.408248 0.408248 -0.816497
vn -0.333333 0.666667 -0.666667
vn -0.182574 0.912871 0.365148
vn 0 0 1
vn 0 0 -1
vn 0 0.5547 -0.83205
vn 0 0.707107 0.707107
vn 0 0.707107 -0.707107
vn 0 0.8 0.6
vn 0 1 -0
vn 0.218218 0.872872 -0.436436
vn 0.365148 0.912871 0.182574
vn 0.408248 0.408248 0.816497
vn 0.447214 0 -0.894427
vn 0.6 0.8 -0
vn 0.666667 0.666667 -0.333333
vn 0.707107 0.707107 -0
vn 0.83205 0.5547 -0
vn 0.894427 0 0.447214
vn 1 0 -0
g group_light_biege
usemtl light_biege
s off
f 56//17 29//23 55//15
f 56//17 30//24 29//23
g group_dark_biege
usemtl dark_biege
s off
f 209//4 192//17 191//15
f 208//8 209//4 191//15
f 73//17 56//17 55//15
f 73//17 55//15 72//15
g group_light_biege
usemtl light_biege
s off
f 90//17 73//17 72//15
f 90//17 72//15 89//15
g group_dark_biege
usemtl dark_biege
s off
f 107//17 90//17 89//15
f 107//17 89//15 106//15
g group_light_biege
usemtl light_biege
s off
f 124//17 107//17 106//15
f 124//17 106//15 123//15
g group_dark_biege
usemtl dark_biege
s off
f 141//17 124//17 123//15
f 140//15 141//17 123//15
g group_light_biege
usemtl light_biege
s off
f 158//17 141//17 140//15
f 157//15 158//17 140//15
g group_dark_biege
usemtl dark_biege
s off
f 175//17 158//17 157//15
f 174//15 175//17 157//15
g group_light_biege
usemtl light_biege
s off
f 192//17 175//17 174//15
f 191//15 192//17 174//15
f 210//4 193//17 192//17
f 209//4 210//4 192//17
g group_dark_biege
usemtl dark_biege
s off
f 57//17 30//24 56//17
f 57//17 31//24 30//24
f 192//17 193//17 175//17
f 193//17 176//17 175//17
g group_light_biege
usemtl light_biege
s off
f 175//17 176//17 158//17
f 176//17 159//17 158//17
g group_dark_biege
usemtl dark_biege
s off
f 158//17 159//17 141//17
f 159//17 142//17 141//17
g group_light_biege
usemtl light_biege
s off
f 141//17 142//17 124//17
f 142//17 125//17 124//17
g group_dark_biege
usemtl dark_biege
s off
f 125//17 107//17 124//17
f 125//17 108//17 107//17
g group_light_biege
usemtl light_biege
s off
f 108//17 90//17 107//17
f 108//17 91//17 90//17
g group_dark_biege
usemtl dark_biege
s off
f 91//17 73//17 90//17
f 91//17 74//17 73//17
g group_light_biege
usemtl light_biege
s off
f 74//17 56//17 73//17
f 74//17 57//17 56//17
g group_dark_biege
usemtl dark_biege
s off
f 211//4 194//17 193//17
f 210//4 211//4 193//17
g group_light_biege
usemtl light_biege
s off
f 58//17 31//24 57//17
f 58//17 32//24 31//24
f 193//17 194//17 176//17
f 194//17 177//17 176//17
g group_dark_biege
usemtl dark_biege
s off
f 176//17 177//17 159//17
f 177//17 160//17 159//17
g group_light_biege
usemtl light_biege
s off
f 159//17 160//17 142//17
f 160//17 143//17 142//17
g group_dark_biege
usemtl dark_biege
s off
f 142//17 143//17 125//17
f 143//17 126//17 125//17
g group_light_biege
usemtl light_biege
s off
f 126//17 108//17 125//17
f 126//17 109//17 108//17
g group_dark_biege
usemtl dark_biege
s off
f 109//17 91//17 108//17
f 109//17 92//17 91//17
g group_light_biege
usemtl light_biege
s off
f 92//17 74//17 91//17
f 92//17 75//17 74//17
g group_dark_biege
usemtl dark_biege
s off
f 75//17 57//17 74//17
f 75//17 58//17 57//17
g group_light_biege
usemtl light_biege
s off
f 212//4 195//17 194//17
f 211//4 212//4 194//17
g group_dark_biege
usemtl dark_biege
s off
f 59//17 32//24 58//17
f 59//17 33//24 32//24
f 194//17 195//17 177//17
f 195//17 178//17 177//17
g group_light_biege
usemtl light_biege
s off
f 177//17 178//17 160//17
f 178//17 161//17 160//17
g group_dark_biege
usemtl dark_biege
s off
f 160//17 161//17 143//17
f 161//17 144//17 143//17
g group_light_biege
usemtl light_biege
s off
f 143//17 144//17 126//17
f 144//17 127//17 126//17
g group_dark_biege
usemtl dark_biege
s off
f 127//17 109//17 126//17
f 127//17 110//17 109//17
g group_light_biege
usemtl light_biege
s off
f 110//17 92//17 109//17
f 110//17 93//17 92//17
g group_dark_biege
usemtl dark_biege
s off
f 93//17 75//17 92//17
f 93//17 76//17 75//17
g group_light_biege
usemtl light_biege
s off
f 76//17 58//17 75//17
f 76//17 59//17 58//17
g group_dark_biege
usemtl dark_biege
s off
f 213//4 196//17 195//17
f 212//4 213//4 195//17
g group_light_biege
usemtl light_biege
s off
f 60//17 33//24 59//17
f 60//17 34//24 33//24
f 195//17 196//17 178//17
f 196//17 179//17 178//17
g group_dark_biege
usemtl dark_biege
s off
f 178//17 179//17 161//17
f 179//17 162//17 161//17
g group_light_biege
usemtl light_biege
s off
f 161//17 162//17 144//17
f 162//17 145//17 144//17
g group_dark_biege
usemtl dark_biege
s off
f 144//17 145//17 127//17
f 145//17 128//17 127//17
g group_light_biege
usemtl light_biege
s off
f 128//17 110//17 127//17
f 128//17 111//17 110//17
g group_dark_biege
usemtl dark_biege
s off
f 111//17 93//17 110//17
f 111//17 94//17 93//17
g group_light_biege
usemtl light_biege
s off
f 94//17 76//17 93//17
f 94//17 77//17 76//17
g group_dark_biege
usemtl dark_biege
s off
f 77//17 59//17 76//17
f 77//17 60//17 59//17
g group_light_biege
usemtl light_biege
s off
f 214//4 197//17 196//17
f 213//4 214//4 196//17
g group_dark_biege
usemtl dark_biege
s off
f 61//17 34//24 60//17
f 61//17 35//24 34//24
f 196//17 197//17 179//17
f 197//17 180//17 179//17
g group_light_biege
usemtl light_biege
s off
f 179//17 180//17 162//17
f 180//17 163//17 162//17
g group_dark_biege
usemtl dark_biege
s off
f 162//17 163//17 145//17
f 163//17 146//17 145//17
g group_light_biege
usemtl light_biege
s off
f 145//17 146//17 128//17
f 146//17 129//17 128//17
g group_dark_biege
usemtl dark_biege
s off
f 129//17 111//17 128//17
f 129//17 112//17 111//17
g group_light_biege
usemtl light_biege
s off
f 112//17 94//17 111//17
f 112//17 95//17 94//17
g group_dark_biege
usemtl dark_biege
s off
f 95//17 77//17 94//17
f 95//17 78//17 77//17
g group_light_biege
usemtl light_biege
s off
f 78//17 60//17 77//17
f 78//17 61//17 60//17
g group_dark_biege
usemtl dark_biege
s off
f 215//4 198//17 197//17
f 214//4 215//4 197//17
g group_light_biege
usemtl light_biege
s off
f 62//17 35//24 61//17
f 62//17 36//24 35//24
f 197//17 198//17 180//17
f 198//17 181//17 180//17
g group_dark_biege
usemtl dark_biege
s off
f 180//17 181//17 163//17
f 181//17 164//17 163//17
g group_light_biege
usemtl light_biege
s off
f 163//17 164//17 146//17
f 164//17 147//17 146//17
g group_dark_biege
usemtl dark_biege
s off
f 146//17 147//17 129//17
f 147//17 130//17 129//17
g group_light_biege
usemtl light_biege
s off
f 130//17 112//17 129//17
f 130//17 113//17 112//17
g group_dark_biege
usemtl dark_biege
s off
f 113//17 95//17 112//17
f 113//17 96//17 95//17
g group_light_biege
usemtl light_biege
s off
f 96//17 78//17 95//17
f 96//17 79//17 78//17
g group_dark_biege
usemtl dark_biege
s off
f 79//17 61//17 78//17
f 79//17 62//17 61//17
g group_light_biege
usemtl light_biege
s off
f 216//4 199//17 198//17
f 215//4 216//4 198//17
g group_dark_biege
usemtl dark_biege
s off
f 63//17 36//24 62//17
f 63//17 37//24 36//24
f 198//17 199//17 181//17
f 199//17 182//17 181//17
g group_light_biege
usemtl light_biege
s off
f 181//17 182//17 164//17
f 182//17 165//17 164//17
g group_dark_biege
usemtl dark_biege
s off
f 164//17 165//17 147//17
f 165//17 148//17 147//17
g group_light_biege
usemtl light_biege
s off
f 147//17 148//17 130//17
f 148//17 131//17 130//17
g group_dark_biege
usemtl dark_biege
s off
f 131//17 113//17 130//17
f 131//17 114//17 113//17
g group_light_biege
usemtl light_biege
s off
f 114//17 96//17 113//17
f 114//17 97//17 96//17
g group_dark_biege
usemtl dark_biege
s off
f 97//17 79//17 96//17
f 97//17 80//17 79//17
g group_light_biege
usemtl light_biege
s off
f 80//17 62//17 79//17
f 80//17 63//17 62//17
g group_dark_biege
usemtl dark_biege
s off
f 217//4 200//17 199//17
f 216//4 217//4 199//17
g group_light_biege
usemtl light_biege
s off
f 64//17 37//24 63//17
f 64//17 38//24 37//24
f 199//17 200//17 182//17
f 200//17 183//17 182//17
g group_dark_biege
usemtl dark_biege
s off
f 182//17 183//17 165//17
f 183//17 166//17 165//17
g group_light_biege
usemtl light_biege
s off
f 165//17 166//17 148//17
f 166//17 149//17 148//17
g group_dark_biege
usemtl dark_biege
s off
f 148//17 149//17 131//17
f 149//17 132//17 131//17
g group_light_biege
usemtl light_biege
s off
f 132//17 114//17 131//17
f 132//17 115//17 114//17
g group_dark_biege
usemtl dark_biege
s off
f 115//17 97//17 114//17
f 115//17 98//17 97//17
g group_light_biege
usemtl light_biege
s off
f 98//17 80//17 97//17
f 98//17 81//17 80//17
g group_dark_biege
usemtl dark_biege
s off
f 81//17 63//17 80//17
f 81//17 64//17 63//17
g group_light_biege
usemtl light_biege
s off
f 218//5 201//14 200//17
f 217//4 218//5 200//17
g group_dark_biege
usemtl dark_biege
s off
f 65//14 38//24 64//17
f 65//14 39//20 38//24
f 200//17 201//14 183//17
f 201//14 184//14 183//17
g group_light_biege
usemtl light_biege
s off
f 183//17 184//14 166//17
f 184//14 167//14 166//17
g group_dark_biege
usemtl dark_biege
s off
f 166//17 167//14 149//17
f 167//14 150//14 149//17
g group_light_biege
usemtl light_biege
s off
f 149//17 150//14 132//17
f 150//14 133//14 132//17
g group_dark_biege
usemtl dark_biege
s off
f 133//14 115//17 132//17
f 133//14 116//14 115//17
g group_light_biege
usemtl light_biege
s off
f 116//14 98//17 115//17
f 116//14 99//14 98//17
g group_dark_biege
usemtl dark_biege
s off
f 99//14 81//17 98//17
f 99//14 82//14 81//17
g group_light_biege
usemtl light_biege
s off
f 82//14 64//17 81//17
f 82//14 65//14 64//17
f 229//4 218//5 217//4
f 229//4 230//10 218//5
f 228//4 217//4 216//4
f 228//4 229//4 217//4
f 227//4 216//4 215//4
f 227//4 228//4 216//4
f 226//4 215//4 214//4
f 226//4 227//4 215//4
f 225//4 214//4 213//4
f 225//4 226//4 214//4
f 224//4 213//4 212//4
f 224//4 225//4 213//4
f 223//4 212//4 211//4
f 223//4 224//4 212//4
f 222//4 211//4 210//4
f 222//4 223//4 211//4
f 221//4 210//4 209//4
f 221//4 222//4 210//4
f 220//7 209//4 208//8
f 220//7 221//4 209//4
f 203//15 208//8 191//15
f 203//15 220//7 208//8
f 186//15 191//15 174//15
f 186//15 203//15 191//15
f 169//15 174//15 157//15
f 169//15 186//15 174//15
f 135//15 140//15 123//15
f 135//15 152//15 140//15
f 152//15 157//15 140//15
f 152//15 169//15 157//15
f 106//15 118//15 123//15
f 118//15 135//15 123//15
f 72//15 84//15 89//15
f 84//15 101//15 89//15
f 89//15 101//15 106//15
f 101//15 118//15 106//15
f 55//15 67//15 72//15
f 67//15 84//15 72//15
f 29//23 41//18 55//15
f 41//18 67//15 55//15
f 30//24 42//24 29//23
f 42//24 41//18 29//23
f 31//24 43//24 30//24
f 43//24 42//24 30//24
f 32//24 44//24 31//24
f 44//24 43//24 31//24
f 33//24 45//24 32//24
f 45//24 44//24 32//24
f 34//24 46//24 33//24
f 46//24 45//24 33//24
f 35//24 47//24 34//24
f 47//24 46//24 34//24
f 36//24 48//24 35//24
f 48//24 47//24 35//24
f 37//24 49//24 36//24
f 49//24 48//24 36//24
f 38//24 50//24 37//24
f 50//24 49//24 37//24
f 39//20 51//19 38//24
f 51//19 50//24 38//24
f 68//14 39//20 65//14
f 68//14 51//19 39//20
f 85//14 65//14 82//14
f 85//14 68//14 65//14
f 102//14 82//14 99//14
f 102//14 85//14 82//14
f 119//14 99//14 116//14
f 119//14 102//14 99//14
f 136//14 116//14 133//14
f 136//14 119//14 116//14
f 150//14 153//14 133//14
f 153//14 136//14 133//14
f 184//14 187//14 167//14
f 187//14 170//14 167//14
f 167//14 170//14 150//14
f 170//14 153//14 150//14
f 201//14 204//14 184//14
f 204//14 187//14 184//14
f 218//5 230//10 201//14
f 230//10 204//14 201//14
f 255//24 230//10 229//4
f 256//25 230//10 255//24
f 254//24 229//4 228//4
f 255//24 229//4 254//24
f 253//24 228//4 227//4
f 254//24 228//4 253//24
f 252//24 227//4 226//4
f 253//24 227//4 252//24
f 251//24 226//4 225//4
f 252//24 226//4 251//24
f 250//24 225//4 224//4
f 251//24 225//4 250//24
f 249//24 224//4 223//4
f 250//24 224//4 249//24
f 248//24 223//4 222//4
f 249//24 223//4 248//24
f 247//24 222//4 221//4
f 248//24 222//4 247//24
f 246//22 221//4 220//7
f 247//24 221//4 246//22
f 246//22 220//7 219//14
f 245//20 246//22 219//14
f 220//7 203//15 202//14
f 219//14 220//7 202//14
f 203//15 186//15 185//14
f 202//14 203//15 185//14
f 186//15 169//15 168//14
f 185//14 186//15 168//14
f 169//15 152//15 151//14
f 168//14 169//15 151//14
f 152//15 135//15 134//14
f 151//14 152//15 134//14
f 135//15 118//15 117//14
f 135//15 117//14 134//14
f 118//15 101//15 100//14
f 118//15 100//14 117//14
f 101//15 84//15 83//14
f 101//15 83//14 100//14
f 84//15 67//15 66//14
f 84//15 66//14 83//14
f 67//15 41//18 40//16
f 67//15 40//16 66//14
f 230//10 231//15 204//14
f 231//15 205//15 204//14
f 204//14 205//15 187//14
f 205//15 188//15 187//14
f 256//25 257//23 230//10
f 257//23 231//15 230//10
f 187//14 188//15 170//14
f 188//15 171//15 170//14
f 170//14 171//15 153//14
f 171//15 154//15 153//14
f 153//14 154//15 136//14
f 154//15 137//15 136//14
f 137//15 119//14 136//14
f 137//15 120//15 119//14
f 120//15 102//14 119//14
f 120//15 103//15 102//14
f 103//15 85//14 102//14
f 103//15 86//15 85//14
f 86//15 68//14 85//14
f 86//15 69//15 68//14
f 69//15 51//19 68//14
f 69//15 52//13 51//19
f 52//13 26//9 51//19
f 26//9 25//4 51//19
f 41//18 15//4 40//16
f 15//4 14//3 40//16
f 51//19 25//4 50//24
f 25//4 24//4 50//24
f 50//24 24//4 49//24
f 24//4 23//4 49//24
f 49//24 23//4 48//24
f 23//4 22//4 48//24
f 48//24 22//4 47//24
f 22//4 21//4 47//24
f 47//24 21//4 46//24
f 21//4 20//4 46//24
f 46//24 20//4 45//24
f 20//4 19//4 45//24
f 45//24 19//4 44//24
f 19//4 18//4 44//24
f 44//24 18//4 43//24
f 18//4 17//4 43//24
f 43//24 17//4 42//24
f 17//4 16//4 42//24
f 42//24 16//4 41//18
f 16//4 15//4 41//18
f 219//14 202//14 189//11
f 206//11 219//14 189//11
f 245//20 219//14 206//11
f 232//26 245//20 206//11
f 246//22 245//20 232//26
f 233//27 246//22 232//26
f 247//24 246//22 233//27
f 234//27 247//24 233//27
f 248//24 247//24 234//27
f 235//27 248//24 234//27
f 249//24 248//24 235//27
f 236//27 249//24 235//27
f 250//24 249//24 236//27
f 237//27 250//24 236//27
f 251//24 250//24 237//27
f 238//27 251//24 237//27
f 252//24 251//24 238//27
f 239//27 252//24 238//27
f 253//24 252//24 239//27
f 240//27 253//24 239//27
f 254//24 253//24 240//27
f 241//27 254//24 240//27
f 255//24 254//24 241//27
f 242//27 255//24 241//27
f 256//25 255//24 242//27
f 243//27 256//25 242//27
f 257//23 256//25 243//27
f 244//21 257//23 243//27
f 231//15 257//23 244//21
f 231//15 244//21 207//12
f 205//15 231//15 207//12
f 205//15 207//12 190//12
f 188//15 205//15 190//12
f 188//15 190//12 173//12
f 171//15 188//15 173//12
f 171//15 173//12 156//12
f 154//15 171//15 156//12
f 154//15 156//12 139//12
f 137//15 154//15 139//12
f 137//15 139//12 122//12
f 120//15 137//15 122//12
f 105//12 120//15 122//12
f 103//15 120//15 105//12
f 88//12 103//15 105//12
f 86//15 103//15 88//12
f 71//12 86//15 88//12
f 69//15 86//15 71//12
f 54//12 69//15 71//12
f 52//13 69//15 54//12
f 28//12 52//13 54//12
f 26//9 52//13 28//12
f 13//2 26//9 28//12
f 25//4 26//9 13//2
f 25//4 13//2 12//1
f 24//4 25//4 12//1
f 24//4 12//1 11//1
f 23//4 24//4 11//1
f 23//4 11//1 10//1
f 22//4 23//4 10//1
f 22//4 10//1 9//1
f 21//4 22//4 9//1
f 21//4 9//1 8//1
f 20//4 21//4 8//1
f 20//4 8//1 7//1
f 19//4 20//4 7//1
f 19//4 7//1 6//1
f 18//4 19//4 6//1
f 18//4 6//1 5//1
f 17//4 18//4 5//1
f 17//4 5//1 4//1
f 16//4 17//4 4//1
f 16//4 4//1 3//1
f 15//4 16//4 3//1
f 15//4 3//1 2//1
f 14//3 15//4 2//1
f 14//3 2//1 1//6
f 40//16 14//3 1//6
f 40//16 1//6 27//11
f 66//14 40//16 27//11
f 66//14 27//11 53//11
f 83//14 66//14 53//11
f 83//14 53//11 70//11
f 100//14 83//14 70//11
f 100//14 70//11 87//11
f 117//14 100//14 87//11
f 117//14 87//11 104//11
f 134//14 117//14 104//11
f 134//14 104//11 121//11
f 151//14 134//14 121//11
f 138//11 151//14 121//11
f 168//14 151//14 138//11
f 155//11 168//14 138//11
f 185//14 168//14 155//11
f 172//11 185//14 155//11
f 202//14 185//14 172//11
f 189//11 202//14 172//11
