# This file uses centimeters as units for non-parametric coordinates.

mtllib waypoint.mtl
g default
v 0.475529 1.000000 -0.154509
v 0.404509 1.000000 -0.293893
v 0.293893 1.000000 -0.404509
v 0.154509 1.000000 -0.475529
v 0.000000 1.000000 -0.500000
v -0.154509 1.000000 -0.475528
v -0.293893 1.000000 -0.404509
v -0.404509 1.000000 -0.293893
v -0.475528 1.000000 -0.154509
v -0.500000 1.000000 0.000000
v -0.475528 1.000000 0.154509
v -0.404509 1.000000 0.293893
v -0.293893 1.000000 0.404509
v -0.154509 1.000000 0.475528
v -0.000000 1.000000 0.500000
v 0.154508 1.000000 0.475528
v 0.293893 1.000000 0.404509
v 0.404509 1.000000 0.293893
v 0.475528 1.000000 0.154509
v 0.500000 1.000000 0.000000
v 0.000000 2.000000 0.000000
vt 0.250000 0.500000
vt 0.275000 0.500000
vt 0.300000 0.500000
vt 0.325000 0.500000
vt 0.350000 0.500000
vt 0.375000 0.500000
vt 0.400000 0.500000
vt 0.425000 0.500000
vt 0.450000 0.500000
vt 0.475000 0.500000
vt 0.500000 0.500000
vt 0.525000 0.500000
vt 0.550000 0.500000
vt 0.575000 0.500000
vt 0.600000 0.500000
vt 0.625000 0.500000
vt 0.650000 0.500000
vt 0.675000 0.500000
vt 0.700000 0.500000
vt 0.725000 0.500000
vt 0.750000 0.500000
vt 0.500000 1.000000
vn 0.850651 0.447214 -0.276392
vn 0.723607 0.447214 -0.525731
vn -0.000000 1.000000 0.000000
vn 0.525731 0.447214 -0.723607
vn 0.276393 0.447214 -0.850651
vn -0.000000 0.447214 -0.894427
vn -0.276393 0.447214 -0.850651
vn -0.525731 0.447214 -0.723607
vn -0.723607 0.447214 -0.525731
vn -0.850651 0.447214 -0.276393
vn -0.894427 0.447214 0.000000
vn -0.850651 0.447214 0.276393
vn -0.723607 0.447214 0.525731
vn -0.525731 0.447214 0.723607
vn -0.276393 0.447214 0.850651
vn 0.000000 0.447214 0.894427
vn 0.276393 0.447214 0.850651
vn 0.525731 0.447214 0.723607
vn 0.723607 0.447214 0.525731
vn 0.850651 0.447214 0.276393
vn 0.894427 0.447214 0.000001
s 1
g pCone1
usemtl initialShadingGroup
f 1/1/1 2/2/2 21/22/3
f 2/2/2 3/3/4 21/22/3
f 3/3/4 4/4/5 21/22/3
f 4/4/5 5/5/6 21/22/3
f 5/5/6 6/6/7 21/22/3
f 6/6/7 7/7/8 21/22/3
f 7/7/8 8/8/9 21/22/3
f 8/8/9 9/9/10 21/22/3
f 9/9/10 10/10/11 21/22/3
f 10/10/11 11/11/12 21/22/3
f 11/11/12 12/12/13 21/22/3
f 12/12/13 13/13/14 21/22/3
f 13/13/14 14/14/15 21/22/3
f 14/14/15 15/15/16 21/22/3
f 15/15/16 16/16/17 21/22/3
f 16/16/17 17/17/18 21/22/3
f 17/17/18 18/18/19 21/22/3
f 18/18/19 19/19/20 21/22/3
f 19/19/20 20/20/21 21/22/3
f 20/20/21 1/21/1 21/22/3
g default
v -0.475529 1.000000 -0.154509
v -0.404509 1.000000 -0.293893
v -0.293893 1.000000 -0.404509
v -0.154509 1.000000 -0.475529
v -0.000000 1.000000 -0.500000
v 0.154508 1.000000 -0.475528
v 0.293893 1.000000 -0.404509
v 0.404508 1.000000 -0.293893
v 0.475528 1.000000 -0.154509
v 0.500000 1.000000 0.000000
v 0.475528 1.000000 0.154509
v 0.404508 1.000000 0.293893
v 0.293892 1.000000 0.404509
v 0.154508 1.000000 0.475528
v -0.000000 1.000000 0.500000
v -0.154509 1.000000 0.475528
v -0.293893 1.000000 0.404509
v -0.404509 1.000000 0.293893
v -0.475529 1.000000 0.154509
v -0.500000 1.000000 0.000000
v -0.000000 0.000000 0.000000
vt 0.250000 0.500000
vt 0.275000 0.500000
vt 0.300000 0.500000
vt 0.325000 0.500000
vt 0.350000 0.500000
vt 0.375000 0.500000
vt 0.400000 0.500000
vt 0.425000 0.500000
vt 0.450000 0.500000
vt 0.475000 0.500000
vt 0.500000 0.500000
vt 0.525000 0.500000
vt 0.550000 0.500000
vt 0.575000 0.500000
vt 0.600000 0.500000
vt 0.625000 0.500000
vt 0.650000 0.500000
vt 0.675000 0.500000
vt 0.700000 0.500000
vt 0.725000 0.500000
vt 0.750000 0.500000
vt 0.500000 1.000000
vn -0.850651 -0.447214 -0.276392
vn -0.723607 -0.447214 -0.525731
vn 0.000000 -1.000000 0.000000
vn -0.525731 -0.447214 -0.723607
vn -0.276393 -0.447214 -0.850651
vn 0.000000 -0.447214 -0.894427
vn 0.276393 -0.447214 -0.850651
vn 0.525731 -0.447214 -0.723607
vn 0.723607 -0.447214 -0.525731
vn 0.850651 -0.447214 -0.276393
vn 0.894427 -0.447214 0.000000
vn 0.850651 -0.447214 0.276393
vn 0.723607 -0.447214 0.525731
vn 0.525731 -0.447214 0.723607
vn 0.276393 -0.447214 0.850651
vn -0.000000 -0.447214 0.894427
vn -0.276393 -0.447214 0.850651
vn -0.525731 -0.447214 0.723607
vn -0.723607 -0.447214 0.525731
vn -0.850651 -0.447214 0.276393
vn -0.894427 -0.447214 0.000001
s 1
g pasted__pCone1 group
usemtl initialShadingGroup
f 22/23/22 23/24/23 42/44/24
f 23/24/23 24/25/25 42/44/24
f 24/25/25 25/26/26 42/44/24
f 25/26/26 26/27/27 42/44/24
f 26/27/27 27/28/28 42/44/24
f 27/28/28 28/29/29 42/44/24
f 28/29/29 29/30/30 42/44/24
f 29/30/30 30/31/31 42/44/24
f 30/31/31 31/32/32 42/44/24
f 31/32/32 32/33/33 42/44/24
f 32/33/33 33/34/34 42/44/24
f 33/34/34 34/35/35 42/44/24
f 34/35/35 35/36/36 42/44/24
f 35/36/36 36/37/37 42/44/24
f 36/37/37 37/38/38 42/44/24
f 37/38/38 38/39/39 42/44/24
f 38/39/39 39/40/40 42/44/24
f 39/40/40 40/41/41 42/44/24
f 40/41/41 41/42/42 42/44/24
f 41/42/42 22/43/22 42/44/24
